<svg
  xmlns="http://www.w3.org/2000/svg"
  viewBox="0 0 24 24"
  preserveAspectRatio="xMinYMid"
  style="fill: none; stroke: currentColor; stroke-width: 2; stroke-linecap: round; stroke-linejoin: round;"
>
  <path d="M8,1h6c0.552,0,1,0.448,1,1v2c0,0.552-0.448,1-1,1H8C7.448,5,7,4.552,7,4V2C7,1.448,7.448,1,8,1z"/>
  <path d="M5,21c-1.105,0-2-0.895-2-2V5c0-1.105,0.895-2,2-2h2"/>
  <path d="M5,21c-1.105,0-2-0.895-2-2V5c0-1.105,0.895-2,2-2h2"/>
  <path d="M15,3h2c1.105,0,2,0.895,2,2v1"/>
  <g>
    <path d="M8,11c0-1.105,0.895-2,2-2"/>
    <path d="M10,23c-1.105,0-2-0.895-2-2"/>
    <path d="M21,21c0,1.105-0.895,2-2,2"/>
    <path d="M19,9c1.105,0,2,0.895,2,2"/>
    <line x1="13.5" y1="9" x2="15.5" y2="9"/>
    <line x1="13.5" y1="23" x2="15.5" y2="23"/>
    <line x1="8" y1="14.5" x2="8" y2="17.5"/>
    <line x1="21" y1="14.5" x2="21" y2="17.5"/>
  </g>
</svg>
