<svg
  xmlns="http://www.w3.org/2000/svg"
  viewBox="0 0 24 24"
  preserveAspectRatio="xMinYMid"
  style="fill: none; stroke: currentColor; stroke-width: 2; stroke-linecap: round; stroke-linejoin: round;"
>
  <line x1="8" y1="16" x2="16" y2="8"/>
  <path d="M11.82,8.18c-0.23-0.97,0.04-2.04,0.8-2.8l2.26-2.26c1.17-1.17,3.07-1.17,4.24,0l1.76,1.76
    c1.17,1.17,1.17,3.07,0,4.24l-2.26,2.26c-0.76,0.76-1.83,1.03-2.8,0.8"/>
  <path d="M12.18,15.82c0.23,0.97-0.04,2.04-0.8,2.8l-2.26,2.26c-1.17,1.17-3.07,1.17-4.24,0l-1.76-1.76
    c-1.17-1.17-1.17-3.07,0-4.24l2.26-2.26c0.76-0.76,1.83-1.03,2.8-0.8"/>
</svg>
