<svg
  xmlns="http://www.w3.org/2000/svg"
  viewBox="0 0 24 24"
  preserveAspectRatio="xMinYMid"
  style="fill: none; stroke: currentColor; stroke-width: 2; stroke-linecap: round; stroke-linejoin: round;"
>
  <line x1="9" y1="4" x2="21" y2="4"/>
  <line x1="9" y1="12" x2="21" y2="12"/>
  <line x1="9" y1="20" x2="21" y2="20"/>
  <g style="stroke-width: 1.5;">
    <polyline points="2.5,3.5 4,2 4,6"/>
    <path d="M3,11c0-0.55,0.45-1,1-1s1,0.45,1,1c0,0.23-0.07,0.43-0.2,0.6L3,14h2"/>
    <path d="M3.03,18.75C3.14,18.32,3.53,18,4,18c0.55,0,1,0.45,1,1s-0.45,1-1,1c0.55,0,1,0.45,1,1s-0.45,1-1,1c-0.47,0-0.86-0.32-0.97-0.75"/>
  </g>
</svg>
